<?xml version="1.0" encoding="UTF-8" standalone="no"?><!DOCTYPE svg PUBLIC "-//W3C//DTD SVG 1.1//EN" "http://www.w3.org/Graphics/SVG/1.1/DTD/svg11.dtd"><svg width="100%" height="100%" viewBox="0 0 80 80" version="1.1" xmlns="http://www.w3.org/2000/svg" xmlns:xlink="http://www.w3.org/1999/xlink" xml:space="preserve" xmlns:serif="http://www.serif.com/" style="fill-rule:evenodd;clip-rule:evenodd;stroke-linejoin:round;stroke-miterlimit:2;"><g id="standalone" transform="matrix(1.58211,0,0,1.96189,-23.2842,-43.7583)"><g id="Burn"><path id="standalone1" serif:id="standalone" d="M33.696,61.874C31.412,61.39 29.373,60.638 27.611,59.665C22.976,56.825 20,52.43 20,47.5C20,47.378 20.002,47.257 20.005,47.136L20,47.136C20.022,42.298 22.463,38.039 26.151,35.553L26.151,36.321L26.166,36.31L26.166,37.225C25.873,37.711 25.714,38.242 25.714,38.757C25.714,40.416 27.471,41.785 29.902,41.762C33.055,41.733 34.559,39.775 34.559,38.116C34.559,37.807 34.477,37.514 34.329,37.243L34.329,37.22C33.787,36.034 33.512,34.557 33.601,32.742C33.61,32.568 33.628,32.393 33.655,32.218L33.642,32.218C33.659,32.141 33.676,32.065 33.695,31.989C34.345,28.673 38.109,25.149 42.496,23.457C42.63,23.406 42.763,23.361 42.896,23.324C42.899,24.148 42.948,25.064 42.948,26.042C42.948,27.27 44.643,31.18 49.318,33.784C55.668,36.382 60,41.552 60,47.5C60,52.559 56.866,57.055 52.023,59.884C50.109,60.883 47.884,61.627 45.381,62.062C49.032,60.428 51.791,57.425 51.791,54.64C51.791,52.663 51.135,51.019 50.053,49.758L50.084,49.702L49.898,49.584C49.242,48.868 48.444,48.283 47.549,47.841C44.734,45.506 41.84,42.273 41.84,40.492C41.84,40.298 41.852,40.109 41.875,39.925C40.472,41.233 39.564,43.317 39.564,45.663C39.564,46.699 39.741,47.684 40.06,48.574C40.067,48.687 40.07,48.801 40.07,48.916C40.07,51.609 38.273,53.796 36.06,53.796C34.221,53.796 32.669,52.285 32.198,50.228C30.435,51.815 29.351,53.856 29.351,55.835C29.351,58.332 31.066,60.524 33.696,61.874Z" style="fill:rgb(228,102,41);"/></g></g></svg>