<?xml version="1.0" encoding="UTF-8" standalone="no"?><!DOCTYPE svg PUBLIC "-//W3C//DTD SVG 1.1//EN" "http://www.w3.org/Graphics/SVG/1.1/DTD/svg11.dtd"><svg width="100%" height="100%" viewBox="0 0 80 80" version="1.1" xmlns="http://www.w3.org/2000/svg" xmlns:xlink="http://www.w3.org/1999/xlink" xml:space="preserve" xmlns:serif="http://www.serif.com/" style="fill-rule:evenodd;clip-rule:evenodd;stroke-linejoin:round;stroke-miterlimit:2;"><g id="standalone" transform="matrix(1.58333,0,0,1.58333,-23.1721,-23.3333)"><g id="Freeze"><g id="standalone1" serif:id="standalone"><g transform="matrix(1,0,0,1.2,-2,-12.8)"><path d="M42,44L47,54L42,64L37,54L42,44Z" style="fill:rgb(66,204,224);"/></g><g transform="matrix(1,0,0,1.2,-2,-36.8)"><path d="M42,44L47,54L42,64L37,54L42,44Z" style="fill:rgb(66,204,224);"/></g><g transform="matrix(0.961538,0,0,1.13636,-0.865385,-6.02273)"><ellipse cx="42.5" cy="40.5" rx="6.5" ry="5.5" style="fill:rgb(66,204,224);"/></g><g transform="matrix(0.499153,0.866514,-1.03982,0.598984,85.5838,-34.7286)"><path d="M42,44L47,54L42,64L37,54L42,44Z" style="fill:rgb(66,204,224);"/></g><g transform="matrix(-0.499989,0.866032,-1.03924,-0.599987,127.511,42.0259)"><path d="M42,44L47,54L42,64L37,54L42,44Z" style="fill:rgb(66,204,224);"/></g><g transform="matrix(-0.499153,0.866514,1.03982,0.598984,-5.78748,-34.7286)"><path d="M42,44L47,54L42,64L37,54L42,44Z" style="fill:rgb(66,204,224);"/></g><g transform="matrix(0.499989,0.866032,1.03924,-0.599987,-47.7144,42.0259)"><path d="M42,44L47,54L42,64L37,54L42,44Z" style="fill:rgb(66,204,224);"/></g></g></g></g></svg>