<?xml version="1.0" encoding="UTF-8" standalone="no"?><!DOCTYPE svg PUBLIC "-//W3C//DTD SVG 1.1//EN" "http://www.w3.org/Graphics/SVG/1.1/DTD/svg11.dtd"><svg width="100%" height="100%" viewBox="0 0 80 80" version="1.1" xmlns="http://www.w3.org/2000/svg" xmlns:xlink="http://www.w3.org/1999/xlink" xml:space="preserve" xmlns:serif="http://www.serif.com/" style="fill-rule:evenodd;clip-rule:evenodd;stroke-linejoin:round;stroke-miterlimit:2;"><g id="standalone" transform="matrix(1.54461,0,0,1.54461,-22.3824,-21.7702)"><g id="Omni"><g id="standalone1" serif:id="standalone"><g transform="matrix(1.27442,0,0,1.099,-10.2998,-2.98897)"><path d="M42.608,31.837L21.421,31.837L25.336,24.558L38.794,24.558L42.608,31.837Z" style="fill:rgb(223,22,76);"/></g><g transform="matrix(-0.585385,1.02359,-0.954008,-0.545589,103.249,20.7405)"><path d="M42.608,31.837L21.421,31.837L25.336,24.558L38.794,24.558L42.608,31.837Z" style="fill:rgb(223,22,76);"/></g><g transform="matrix(0.517371,0.996336,0.97534,-0.506469,-9.83172,37.6917)"><path d="M42.608,31.837L21.421,31.837L25.336,24.558L38.794,24.558L42.608,31.837Z" style="fill:rgb(223,22,76);"/></g><g transform="matrix(1.13281,-1.73412e-17,1.49543e-17,-1.099,14.7335,84.989)"><path d="M42.608,31.837L21.421,31.837L25.336,24.558L38.794,24.558L42.608,31.837Z" style="fill:rgb(223,22,76);"/></g><g transform="matrix(-0.547687,0.991618,0.962018,0.531338,13.4075,-3.22855)"><path d="M42.608,31.837L21.421,31.837L25.336,24.558L38.794,24.558L42.608,31.837Z" style="fill:rgb(223,22,76);"/></g><g transform="matrix(0.55516,1.00515,-0.962018,0.531338,56.4324,-22.5184)"><path d="M42.608,31.837L21.421,31.837L25.336,24.558L38.794,24.558L42.608,31.837Z" style="fill:rgb(223,22,76);"/></g></g></g></g></svg>