<?xml version="1.0" encoding="UTF-8" standalone="no"?><!DOCTYPE svg PUBLIC "-//W3C//DTD SVG 1.1//EN" "http://www.w3.org/Graphics/SVG/1.1/DTD/svg11.dtd"><svg width="100%" height="100%" viewBox="0 0 80 80" version="1.1" xmlns="http://www.w3.org/2000/svg" xmlns:xlink="http://www.w3.org/1999/xlink" xml:space="preserve" xmlns:serif="http://www.serif.com/" style="fill-rule:evenodd;clip-rule:evenodd;stroke-linejoin:round;stroke-miterlimit:2;"><g id="Corrosion"><g opacity="0.75"><g transform="matrix(0.904911,0,0,0.896962,2.02733,3.12225)"><path d="M77.878,12.757L77.878,69.471C77.878,73.818 74.38,77.347 70.07,77.347L13.855,77.347C9.546,77.347 6.048,73.818 6.048,69.471L6.048,12.757C6.048,8.41 9.546,4.881 13.855,4.881L70.07,4.881C74.38,4.881 77.878,8.41 77.878,12.757Z" style="fill:rgb(32,33,34);"/><path d="M77.878,12.757L77.878,69.471C77.878,73.818 74.38,77.347 70.07,77.347L13.855,77.347C9.546,77.347 6.048,73.818 6.048,69.471L6.048,12.757C6.048,8.41 9.546,4.881 13.855,4.881L70.07,4.881C74.38,4.881 77.878,8.41 77.878,12.757Z" style="fill:rgb(32,33,34);"/></g></g><g transform="matrix(1.05805,0,0,1.04876,-4.35107,-3.11859)"><path d="M77.878,16.433L77.878,65.795C77.878,72.171 72.747,77.347 66.427,77.347L17.499,77.347C11.179,77.347 6.048,72.171 6.048,65.795L6.048,16.433C6.048,10.057 11.179,4.881 17.499,4.881L66.427,4.881C72.747,4.881 77.878,10.057 77.878,16.433ZM72.635,16.862C72.635,13.144 69.642,10.125 65.957,10.125L17.878,10.125C14.193,10.125 11.201,13.144 11.201,16.862L11.201,65.366C11.201,69.085 14.193,72.103 17.878,72.103L65.957,72.103C69.642,72.103 72.635,69.085 72.635,65.366L72.635,16.862Z" style="fill:rgb(96,85,189);"/></g><g><g transform="matrix(1.11111,0,0,1.25,-5.38889,-15.5)"><ellipse cx="39.5" cy="58" rx="4.5" ry="4" style="fill:rgb(134,121,232);"/></g><g transform="matrix(1.06667,0,0,1.23077,-4.13333,-11.2308)"><ellipse cx="54.5" cy="46.5" rx="7.5" ry="6.5" style="fill:rgb(134,121,232);"/></g><g transform="matrix(1.18182,0,0,1,-10.5455,1)"><ellipse cx="52.5" cy="24.5" rx="5.5" ry="6.5" style="fill:rgb(134,121,232);"/></g><g transform="matrix(0.884615,0,0,1.21053,4.34615,-7.68421)"><ellipse cx="29" cy="36.5" rx="13" ry="9.5" style="fill:rgb(134,121,232);"/></g></g></g></svg>