<?xml version="1.0" encoding="UTF-8" standalone="no"?><!DOCTYPE svg PUBLIC "-//W3C//DTD SVG 1.1//EN" "http://www.w3.org/Graphics/SVG/1.1/DTD/svg11.dtd"><svg width="100%" height="100%" viewBox="0 0 80 80" version="1.1" xmlns="http://www.w3.org/2000/svg" xmlns:xlink="http://www.w3.org/1999/xlink" xml:space="preserve" xmlns:serif="http://www.serif.com/" style="fill-rule:evenodd;clip-rule:evenodd;stroke-linejoin:round;stroke-miterlimit:2;"><g id="Omni"><g opacity="0.75"><g transform="matrix(0.904911,0,0,0.896962,2.02733,3.12225)"><path d="M77.878,12.757L77.878,69.471C77.878,73.818 74.38,77.347 70.07,77.347L13.855,77.347C9.546,77.347 6.048,73.818 6.048,69.471L6.048,12.757C6.048,8.41 9.546,4.881 13.855,4.881L70.07,4.881C74.38,4.881 77.878,8.41 77.878,12.757Z" style="fill:rgb(32,33,34);"/><path d="M77.878,12.757L77.878,69.471C77.878,73.818 74.38,77.347 70.07,77.347L13.855,77.347C9.546,77.347 6.048,73.818 6.048,69.471L6.048,12.757C6.048,8.41 9.546,4.881 13.855,4.881L70.07,4.881C74.38,4.881 77.878,8.41 77.878,12.757Z" style="fill:rgb(32,33,34);"/></g></g><g><g transform="matrix(1.27442,0,0,1.099,-10.2998,-2.98897)"><path d="M42.608,31.837L21.421,31.837L25.336,24.558L38.794,24.558L42.608,31.837Z" style="fill:rgb(223,22,76);"/></g><g transform="matrix(-0.585385,1.02359,-0.954008,-0.545589,103.249,20.7405)"><path d="M42.608,31.837L21.421,31.837L25.336,24.558L38.794,24.558L42.608,31.837Z" style="fill:rgb(223,22,76);"/></g><g transform="matrix(0.517371,0.996336,0.97534,-0.506469,-9.83172,37.6917)"><path d="M42.608,31.837L21.421,31.837L25.336,24.558L38.794,24.558L42.608,31.837Z" style="fill:rgb(223,22,76);"/></g><g transform="matrix(1.13281,-1.73412e-17,1.49543e-17,-1.099,14.7335,84.989)"><path d="M42.608,31.837L21.421,31.837L25.336,24.558L38.794,24.558L42.608,31.837Z" style="fill:rgb(223,22,76);"/></g><g transform="matrix(-0.547687,0.991618,0.962018,0.531338,13.4075,-3.22855)"><path d="M42.608,31.837L21.421,31.837L25.336,24.558L38.794,24.558L42.608,31.837Z" style="fill:rgb(223,22,76);"/></g><g transform="matrix(0.55516,1.00515,-0.962018,0.531338,56.4324,-22.5184)"><path d="M42.608,31.837L21.421,31.837L25.336,24.558L38.794,24.558L42.608,31.837Z" style="fill:rgb(223,22,76);"/></g></g><g transform="matrix(1.05805,0,0,1.04876,-4.35107,-3.11859)"><path d="M77.878,16.433L77.878,65.795C77.878,72.171 72.747,77.347 66.427,77.347L17.499,77.347C11.179,77.347 6.048,72.171 6.048,65.795L6.048,16.433C6.048,10.057 11.179,4.881 17.499,4.881L66.427,4.881C72.747,4.881 77.878,10.057 77.878,16.433ZM72.635,16.862C72.635,13.144 69.642,10.125 65.957,10.125L17.878,10.125C14.193,10.125 11.201,13.144 11.201,16.862L11.201,65.366C11.201,69.085 14.193,72.103 17.878,72.103L65.957,72.103C69.642,72.103 72.635,69.085 72.635,65.366L72.635,16.862Z" style="fill:rgb(227,41,85);"/></g></g></svg>