<?xml version="1.0" encoding="UTF-8" standalone="no"?>
<!DOCTYPE svg PUBLIC "-//W3C//DTD SVG 1.1//EN" "http://www.w3.org/Graphics/SVG/1.1/DTD/svg11.dtd">
<svg width="100%" height="100%" viewBox="0 0 40 40" version="1.1" xmlns="http://www.w3.org/2000/svg" xmlns:xlink="http://www.w3.org/1999/xlink" xml:space="preserve" xmlns:serif="http://www.serif.com/" style="fill-rule:evenodd;clip-rule:evenodd;stroke-linejoin:round;stroke-miterlimit:2;">
    <g transform="matrix(1,0,0,1,-5,-5)">
        <g transform="matrix(1.5,0,0,1.5,-22.25,-20.75)">
            <circle cx="31.5" cy="30.5" r="6.5" style="fill:rgb(77,131,152);"/>
        </g>
        <g transform="matrix(2.03293,-2.03293,2.32335,2.32335,-82.455,23.2575)">
            <path d="M30,20L30,27L22,27L22,20L30,20ZM28.828,21.025C27.267,19.659 24.733,19.659 23.172,21.025C21.611,22.391 21.611,24.609 23.172,25.975C24.733,27.341 27.267,27.341 28.828,25.975C30.389,24.609 30.389,22.391 28.828,21.025Z" style="fill:rgb(201,200,204);fill-opacity:0.5;"/>
        </g>
        <g transform="matrix(2.03846,0,0,2.03846,-39.2115,-37.1731)">
            <path d="M26.186,34.242C25.439,33.183 25,31.893 25,30.5C25,29.009 25.503,27.635 26.348,26.538L25.348,24.871C25.257,24.721 25.281,24.529 25.405,24.405C25.529,24.281 25.721,24.257 25.871,24.348L27.538,25.348C28.635,24.503 30.009,24 31.5,24C32.991,24 34.365,24.503 35.462,25.348L37.129,24.348C37.279,24.257 37.471,24.281 37.595,24.405C37.719,24.529 37.743,24.721 37.652,24.871L36.652,26.538C37.497,27.635 38,29.009 38,30.5C38,31.893 37.561,33.183 36.814,34.242L37.652,35.638C37.743,35.789 37.719,35.981 37.595,36.105C37.471,36.228 37.279,36.252 37.129,36.162L35.806,35.368C34.659,36.383 33.151,37 31.5,37C29.849,37 28.341,36.383 27.194,35.368L25.871,36.162C25.721,36.252 25.529,36.228 25.405,36.105C25.281,35.981 25.257,35.789 25.348,35.638L26.186,34.242ZM31.5,24.858C28.386,24.858 25.858,27.386 25.858,30.5C25.858,33.614 28.386,36.142 31.5,36.142C34.614,36.142 37.142,33.614 37.142,30.5C37.142,27.386 34.614,24.858 31.5,24.858Z" style="fill:rgb(201,200,204);"/>
        </g>
    </g>
</svg>
